<svg xmlns="http://www.w3.org/2000/svg" xmlns:xlink="http://www.w3.org/1999/xlink" width="272" zoomAndPan="magnify" viewBox="0 0 204 42" height="56" preserveAspectRatio="xMidYMid meet" version="1.0"><defs><g/><clipPath id="f2b2103604"><path d="M 2.371094 0 L 201.625 0 L 201.625 41.023438 L 2.371094 41.023438 Z M 2.371094 0 " clip-rule="nonzero"/></clipPath></defs><g clip-path="url(#f2b2103604)"><path fill="#ffffff" d="M 2.371094 0 L 201.628906 0 L 201.628906 41.023438 L 2.371094 41.023438 Z M 2.371094 0 " fill-opacity="1" fill-rule="nonzero"/><path fill="#ffffff" d="M 2.371094 0 L 201.628906 0 L 201.628906 41.023438 L 2.371094 41.023438 Z M 2.371094 0 " fill-opacity="1" fill-rule="nonzero"/></g><g fill="#000000" fill-opacity="1"><g transform="translate(16.786773, 28.554853)"><g><path d="M 16.78125 -7.53125 L 8.375 -7.53125 L 5.875 0 L 0.546875 0 L 9.5625 -25 L 15.828125 -25 L 24.671875 0 L 19.234375 0 Z M 12.609375 -20.71875 L 9.640625 -11.484375 L 15.515625 -11.484375 Z M 12.609375 -20.71875 "/></g></g></g><g fill="#000000" fill-opacity="1"><g transform="translate(40.551583, 28.554853)"><g><path d="M 12.109375 -19.75 C 12.660156 -19.75 13.128906 -19.703125 13.515625 -19.609375 L 13.515625 -15.578125 C 11.390625 -15.722656 9.816406 -15.269531 8.796875 -14.21875 C 7.785156 -13.164062 7.28125 -11.375 7.28125 -8.84375 L 7.28125 0 L 2.28125 0 L 2.28125 -19.28125 L 7.28125 -19.28125 L 7.28125 -15.765625 L 8.8125 -18.4375 C 9.75 -19.3125 10.847656 -19.75 12.109375 -19.75 Z M 12.109375 -19.75 "/></g></g></g><g fill="#000000" fill-opacity="1"><g transform="translate(53.59314, 28.554853)"><g><path d="M 21.015625 -19.28125 L 21.015625 7.109375 L 16.015625 7.109375 L 16.015625 -2.96875 L 14.5625 -0.828125 C 13.40625 0.0546875 11.738281 0.5 9.5625 0.5 C 6.90625 0.5 4.8125 -0.398438 3.28125 -2.203125 C 1.75 -4.015625 0.984375 -6.375 0.984375 -9.28125 C 0.984375 -12.613281 1.863281 -15.195312 3.625 -17.03125 C 5.382812 -18.863281 7.582031 -19.78125 10.21875 -19.78125 C 12.195312 -19.78125 13.707031 -19.421875 14.75 -18.703125 L 16.015625 -16.703125 L 16.015625 -19.28125 Z M 11.015625 -3 C 12.515625 -3 13.722656 -3.515625 14.640625 -4.546875 C 15.554688 -5.578125 16.015625 -7.203125 16.015625 -9.421875 L 16.015625 -10.359375 C 16.015625 -12.367188 15.539062 -13.851562 14.59375 -14.8125 C 13.65625 -15.78125 12.523438 -16.265625 11.203125 -16.265625 C 9.703125 -16.265625 8.484375 -15.691406 7.546875 -14.546875 C 6.617188 -13.398438 6.15625 -11.753906 6.15625 -9.609375 C 6.15625 -7.617188 6.597656 -6.019531 7.484375 -4.8125 C 8.367188 -3.601562 9.546875 -3 11.015625 -3 Z M 11.015625 -3 "/></g></g></g><g fill="#000000" fill-opacity="1"><g transform="translate(76.238443, 28.554853)"><g><path d="M 14.421875 -24.855469 C 13.152344 -25 12.574219 -25 11.230469 -25 L 3.625 -25 L 3.625 0 L 11.050781 0 C 12.390625 0 12.972656 0 14.238281 -0.144531 C 20.035156 -0.871094 24.3125 -5.433594 24.3125 -12.789062 C 24.3125 -20.253906 20.21875 -24.128906 14.421875 -24.855469 Z M 13.914062 -2.71875 C 13.117188 -2.574219 12.175781 -2.535156 10.871094 -2.535156 L 6.738281 -2.535156 L 6.738281 -22.464844 L 11.050781 -22.464844 C 12.355469 -22.464844 13.296875 -22.429688 14.09375 -22.28125 C 18.332031 -21.59375 20.90625 -18.332031 20.90625 -12.789062 C 20.90625 -6.882812 18.152344 -3.40625 13.914062 -2.71875 Z M 13.914062 -2.71875 "/></g></g></g><g fill="#000000" fill-opacity="1"><g transform="translate(101.198757, 28.554853)"><g><path d="M 18.441406 -10.144531 C 18.441406 -15.761719 15.507812 -19.710938 10.21875 -19.710938 C 4.964844 -19.710938 1.085938 -15.761719 1.085938 -9.527344 C 1.085938 -2.753906 4.820312 0.507812 9.820312 0.507812 C 13.769531 0.507812 17.429688 -1.558594 18.1875 -6.195312 L 14.925781 -6.195312 C 14.492188 -3.441406 12.464844 -1.882812 9.964844 -1.882812 C 7.136719 -1.882812 4.746094 -3.585938 4.457031 -8.660156 L 18.371094 -8.660156 C 18.441406 -9.347656 18.441406 -9.855469 18.441406 -10.144531 Z M 10.144531 -17.320312 C 13.296875 -17.320312 15 -15.035156 15.289062 -11.050781 L 4.492188 -11.050781 C 4.855469 -15.144531 7.101562 -17.320312 10.144531 -17.320312 Z M 10.144531 -17.320312 "/></g></g></g><g fill="#000000" fill-opacity="1"><g transform="translate(120.362711, 28.554853)"><g><path d="M 8.261719 -19.710938 C 4.3125 -19.710938 1.628906 -17.609375 1.628906 -14.09375 C 1.628906 -10.726562 4.382812 -9.3125 7.828125 -8.371094 C 11.050781 -7.5 12.355469 -6.523438 12.355469 -4.675781 C 12.355469 -2.824219 10.6875 -1.882812 8.625 -1.882812 C 6.414062 -1.882812 4.636719 -2.863281 4.128906 -5.652344 L 0.871094 -5.652344 C 1.449219 -1.304688 4.457031 0.507812 8.40625 0.507812 C 12.464844 0.507812 15.542969 -1.304688 15.542969 -4.925781 C 15.542969 -8.1875 13.441406 -9.925781 9.023438 -11.085938 C 6.414062 -11.777344 4.820312 -12.535156 4.820312 -14.457031 C 4.820312 -16.125 5.832031 -17.320312 8.007812 -17.320312 C 10.253906 -17.320312 11.628906 -15.976562 12.066406 -13.730469 L 15.328125 -13.730469 C 14.925781 -17.246094 12.574219 -19.710938 8.261719 -19.710938 Z M 8.261719 -19.710938 "/></g></g></g><g fill="#000000" fill-opacity="1"><g transform="translate(136.266218, 28.554853)"><g><path d="M 4.238281 -25.507812 C 3.117188 -25.507812 2.246094 -24.636719 2.246094 -23.515625 C 2.246094 -22.390625 3.117188 -21.523438 4.238281 -21.523438 C 5.363281 -21.523438 6.230469 -22.390625 6.230469 -23.515625 C 6.230469 -24.636719 5.363281 -25.507812 4.238281 -25.507812 Z M 5.796875 0 L 5.796875 -19.203125 L 2.679688 -19.203125 L 2.679688 0 Z M 5.796875 0 "/></g></g></g><g fill="#000000" fill-opacity="1"><g transform="translate(144.163518, 28.554853)"><g><path d="M 19.457031 -19.203125 L 16.339844 -19.203125 L 16.339844 -16.558594 L 15.074219 -18.441406 C 14.09375 -19.238281 12.066406 -19.710938 10.472656 -19.710938 C 5.507812 -19.710938 1.085938 -16.414062 1.085938 -9.3125 C 1.085938 -3.695312 4.203125 0.507812 9.820312 0.507812 C 11.777344 0.507812 13.804688 -0.109375 14.890625 -1.015625 L 16.339844 -3.078125 L 16.339844 -2.753906 C 16.339844 -2.175781 16.339844 -1.558594 16.304688 -0.652344 C 16.160156 3.042969 14.09375 5.21875 10.289062 5.21875 C 6.992188 5.21875 5.109375 3.585938 4.855469 1.230469 L 4.820312 0.90625 L 1.667969 0.90625 L 1.703125 1.269531 C 2.101562 5.324219 4.820312 7.609375 10.289062 7.609375 C 15.832031 7.609375 19.238281 4.636719 19.421875 -0.976562 C 19.457031 -2.027344 19.457031 -3.515625 19.457031 -4.710938 Z M 10.289062 -1.882812 C 6.449219 -1.882812 4.492188 -5.324219 4.492188 -9.675781 C 4.492188 -14.710938 7.101562 -17.320312 10.472656 -17.320312 C 13.226562 -17.320312 16.339844 -15.433594 16.339844 -10.472656 L 16.339844 -9.421875 C 16.339844 -3.914062 13.476562 -1.882812 10.289062 -1.882812 Z M 10.289062 -1.882812 "/></g></g></g><g fill="#000000" fill-opacity="1"><g transform="translate(165.718472, 28.554853)"><g><path d="M 18.839844 -14.09375 C 18.550781 -17.464844 16.195312 -19.710938 11.992188 -19.710938 C 10.035156 -19.710938 8.625 -19.382812 6.992188 -18.117188 L 5.796875 -15.90625 L 5.796875 -19.203125 L 2.679688 -19.203125 L 2.679688 0 L 5.796875 0 L 5.796875 -8.441406 C 5.796875 -15 8.332031 -17.246094 11.339844 -17.246094 C 14.3125 -17.246094 15.542969 -15.578125 15.726562 -13.332031 C 15.796875 -12.355469 15.796875 -11.558594 15.796875 -10.578125 L 15.796875 0 L 18.914062 0 L 18.914062 -10.796875 C 18.914062 -12.355469 18.914062 -13.117188 18.839844 -14.09375 Z M 18.839844 -14.09375 "/></g></g></g></svg>