<svg xmlns="http://www.w3.org/2000/svg" xmlns:xlink="http://www.w3.org/1999/xlink" width="272" zoomAndPan="magnify" viewBox="0 0 204 42" height="56" preserveAspectRatio="xMidYMid meet" version="1.0"><defs><g/><clipPath id="952012fcc6"><path d="M 2.371094 0 L 201.625 0 L 201.625 41.023438 L 2.371094 41.023438 Z M 2.371094 0 " clip-rule="nonzero"/></clipPath></defs><g clip-path="url(#952012fcc6)"><path fill="#ffffff" d="M 2.371094 0 L 201.628906 0 L 201.628906 41.023438 L 2.371094 41.023438 Z M 2.371094 0 " fill-opacity="1" fill-rule="nonzero"/><path fill="#ffffff" d="M 2.371094 0 L 201.628906 0 L 201.628906 41.023438 L 2.371094 41.023438 Z M 2.371094 0 " fill-opacity="1" fill-rule="nonzero"/></g><g fill="#000000" fill-opacity="1"><g transform="translate(5.009301, 28.008724)"><g><path d="M 19.9375 0 L 17.734375 -6.34375 L 8.296875 -6.34375 L 6.09375 0 L 0.890625 0 L 9.9375 -24.796875 L 16.0625 -24.796875 L 25.078125 0 Z M 13 -20.984375 L 12.90625 -20.59375 C 12.78125 -20.164062 12.632812 -19.679688 12.46875 -19.140625 C 12.3125 -18.609375 11.304688 -15.644531 9.453125 -10.25 L 16.578125 -10.25 L 14.140625 -17.375 L 13.375 -19.765625 Z M 13 -20.984375 "/></g></g></g><g fill="#000000" fill-opacity="1"><g transform="translate(33.563303, 28.008724)"><g><path d="M 2.515625 0 L 2.515625 -14.578125 C 2.515625 -15.617188 2.5 -16.488281 2.46875 -17.1875 C 2.4375 -17.882812 2.40625 -18.503906 2.375 -19.046875 L 7.09375 -19.046875 C 7.125 -18.835938 7.171875 -18.191406 7.234375 -17.109375 C 7.296875 -16.035156 7.328125 -15.328125 7.328125 -14.984375 L 7.390625 -14.984375 C 7.867188 -16.316406 8.296875 -17.253906 8.671875 -17.796875 C 9.046875 -18.347656 9.492188 -18.753906 10.015625 -19.015625 C 10.535156 -19.273438 11.179688 -19.40625 11.953125 -19.40625 C 12.585938 -19.40625 13.097656 -19.320312 13.484375 -19.15625 L 13.484375 -15.015625 C 12.679688 -15.191406 11.976562 -15.28125 11.375 -15.28125 C 10.132812 -15.28125 9.171875 -14.78125 8.484375 -13.78125 C 7.804688 -12.78125 7.46875 -11.300781 7.46875 -9.34375 L 7.46875 0 Z M 2.515625 0 "/></g></g></g><g fill="#000000" fill-opacity="1"><g transform="translate(50.113909, 28.008724)"><g><path d="M 1.484375 -9.5 C 1.484375 -12.644531 2.125 -15.082031 3.40625 -16.8125 C 4.6875 -18.539062 6.492188 -19.40625 8.828125 -19.40625 C 11.597656 -19.40625 13.519531 -18.265625 14.59375 -15.984375 C 14.59375 -16.523438 14.625 -17.125 14.6875 -17.78125 C 14.75 -18.445312 14.804688 -18.867188 14.859375 -19.046875 L 19.609375 -19.046875 C 19.535156 -17.773438 19.5 -16.3125 19.5 -14.65625 L 19.5 7.484375 L 14.59375 7.484375 L 14.59375 -0.4375 L 14.671875 -3.171875 L 14.640625 -3.171875 C 13.546875 -0.816406 11.476562 0.359375 8.4375 0.359375 C 6.21875 0.359375 4.503906 -0.503906 3.296875 -2.234375 C 2.085938 -3.972656 1.484375 -6.394531 1.484375 -9.5 Z M 14.625 -9.609375 C 14.625 -11.640625 14.28125 -13.210938 13.59375 -14.328125 C 12.914062 -15.453125 11.914062 -16.015625 10.59375 -16.015625 C 7.957031 -16.015625 6.640625 -13.84375 6.640625 -9.5 C 6.640625 -5.1875 7.945312 -3.03125 10.5625 -3.03125 C 11.851562 -3.03125 12.851562 -3.597656 13.5625 -4.734375 C 14.269531 -5.878906 14.625 -7.503906 14.625 -9.609375 Z M 14.625 -9.609375 "/></g></g></g><g fill="#000000" fill-opacity="1"><g transform="translate(74.659502, 28.008724)"><g><path d="M 24.3125 -12.65625 C 24.3125 -10.09375 23.8125 -7.851562 22.8125 -5.9375 C 21.8125 -4.019531 20.394531 -2.550781 18.5625 -1.53125 C 16.738281 -0.507812 14.628906 0 12.234375 0 L 2.953125 0 L 2.953125 -24.796875 L 11.15625 -24.796875 C 15.351562 -24.796875 18.59375 -23.742188 20.875 -21.640625 C 23.164062 -19.535156 24.3125 -16.539062 24.3125 -12.65625 Z M 20.921875 -12.65625 C 20.921875 -15.726562 20.078125 -18.070312 18.390625 -19.6875 C 16.710938 -21.300781 14.28125 -22.109375 11.09375 -22.109375 L 6.3125 -22.109375 L 6.3125 -2.6875 L 11.84375 -2.6875 C 13.664062 -2.6875 15.265625 -3.085938 16.640625 -3.890625 C 18.015625 -4.691406 19.070312 -5.84375 19.8125 -7.34375 C 20.550781 -8.84375 20.921875 -10.613281 20.921875 -12.65625 Z M 20.921875 -12.65625 "/></g></g></g><g fill="#000000" fill-opacity="1"><g transform="translate(103.213504, 28.008724)"><g><path d="M 4.859375 -8.859375 C 4.859375 -6.671875 5.304688 -4.984375 6.203125 -3.796875 C 7.109375 -2.617188 8.429688 -2.03125 10.171875 -2.03125 C 11.546875 -2.03125 12.644531 -2.300781 13.46875 -2.84375 C 14.300781 -3.394531 14.863281 -4.097656 15.15625 -4.953125 L 17.9375 -4.15625 C 16.800781 -1.144531 14.210938 0.359375 10.171875 0.359375 C 7.359375 0.359375 5.210938 -0.476562 3.734375 -2.15625 C 2.265625 -3.84375 1.53125 -6.335938 1.53125 -9.640625 C 1.53125 -12.785156 2.265625 -15.195312 3.734375 -16.875 C 5.210938 -18.550781 7.316406 -19.390625 10.046875 -19.390625 C 15.648438 -19.390625 18.453125 -16.019531 18.453125 -9.28125 L 18.453125 -8.859375 Z M 15.171875 -11.28125 C 14.992188 -13.289062 14.484375 -14.753906 13.640625 -15.671875 C 12.796875 -16.597656 11.582031 -17.0625 10 -17.0625 C 8.457031 -17.0625 7.238281 -16.546875 6.34375 -15.515625 C 5.445312 -14.484375 4.960938 -13.070312 4.890625 -11.28125 Z M 15.171875 -11.28125 "/></g></g></g><g fill="#000000" fill-opacity="1"><g transform="translate(125.783408, 28.008724)"><g><path d="M 16.71875 -5.265625 C 16.71875 -3.460938 16.039062 -2.070312 14.6875 -1.09375 C 13.332031 -0.125 11.4375 0.359375 9 0.359375 C 6.625 0.359375 4.789062 -0.03125 3.5 -0.8125 C 2.21875 -1.59375 1.382812 -2.8125 1 -4.46875 L 3.796875 -5.015625 C 4.066406 -3.992188 4.625 -3.242188 5.46875 -2.765625 C 6.3125 -2.296875 7.488281 -2.0625 9 -2.0625 C 10.601562 -2.0625 11.773438 -2.304688 12.515625 -2.796875 C 13.265625 -3.285156 13.640625 -4.023438 13.640625 -5.015625 C 13.640625 -5.765625 13.378906 -6.375 12.859375 -6.84375 C 12.347656 -7.3125 11.515625 -7.703125 10.359375 -8.015625 L 8.09375 -8.609375 C 6.28125 -9.078125 4.988281 -9.535156 4.21875 -9.984375 C 3.445312 -10.441406 2.84375 -10.992188 2.40625 -11.640625 C 1.976562 -12.285156 1.765625 -13.078125 1.765625 -14.015625 C 1.765625 -15.742188 2.378906 -17.0625 3.609375 -17.96875 C 4.847656 -18.882812 6.65625 -19.34375 9.03125 -19.34375 C 11.132812 -19.34375 12.800781 -18.972656 14.03125 -18.234375 C 15.269531 -17.492188 16.054688 -16.304688 16.390625 -14.671875 L 13.53125 -14.328125 C 13.351562 -15.171875 12.878906 -15.816406 12.109375 -16.265625 C 11.347656 -16.722656 10.320312 -16.953125 9.03125 -16.953125 C 7.59375 -16.953125 6.535156 -16.734375 5.859375 -16.296875 C 5.179688 -15.859375 4.84375 -15.203125 4.84375 -14.328125 C 4.84375 -13.785156 4.984375 -13.335938 5.265625 -12.984375 C 5.546875 -12.640625 5.960938 -12.34375 6.515625 -12.09375 C 7.066406 -11.84375 8.226562 -11.503906 10 -11.078125 C 11.675781 -10.648438 12.882812 -10.253906 13.625 -9.890625 C 14.363281 -9.535156 14.945312 -9.140625 15.375 -8.703125 C 15.800781 -8.273438 16.128906 -7.773438 16.359375 -7.203125 C 16.597656 -6.640625 16.71875 -5.992188 16.71875 -5.265625 Z M 16.71875 -5.265625 "/></g></g></g><g fill="#000000" fill-opacity="1"><g transform="translate(146.329279, 28.008724)"><g><path d="M 2.40625 -23.09375 L 2.40625 -26.125 L 5.578125 -26.125 L 5.578125 -23.09375 Z M 2.40625 0 L 2.40625 -19.046875 L 5.578125 -19.046875 L 5.578125 0 Z M 2.40625 0 "/></g></g></g><g fill="#000000" fill-opacity="1"><g transform="translate(156.860588, 28.008724)"><g><path d="M 9.640625 7.484375 C 7.566406 7.484375 5.910156 7.070312 4.671875 6.25 C 3.441406 5.4375 2.65625 4.28125 2.3125 2.78125 L 5.484375 2.328125 C 5.703125 3.203125 6.171875 3.875 6.890625 4.34375 C 7.609375 4.820312 8.554688 5.0625 9.734375 5.0625 C 12.890625 5.0625 14.46875 3.21875 14.46875 -0.46875 L 14.46875 -3.53125 L 14.4375 -3.53125 C 13.832031 -2.3125 13.007812 -1.394531 11.96875 -0.78125 C 10.925781 -0.164062 9.707031 0.140625 8.3125 0.140625 C 5.976562 0.140625 4.257812 -0.628906 3.15625 -2.171875 C 2.0625 -3.722656 1.515625 -6.160156 1.515625 -9.484375 C 1.515625 -12.847656 2.101562 -15.332031 3.28125 -16.9375 C 4.457031 -18.539062 6.25 -19.34375 8.65625 -19.34375 C 10.007812 -19.34375 11.179688 -19.035156 12.171875 -18.421875 C 13.160156 -17.804688 13.925781 -16.925781 14.46875 -15.78125 L 14.5 -15.78125 C 14.5 -16.132812 14.519531 -16.742188 14.5625 -17.609375 C 14.613281 -18.484375 14.664062 -18.960938 14.71875 -19.046875 L 17.71875 -19.046875 C 17.65625 -18.410156 17.625 -17.097656 17.625 -15.109375 L 17.625 -0.546875 C 17.625 4.804688 14.960938 7.484375 9.640625 7.484375 Z M 14.46875 -9.515625 C 14.46875 -11.066406 14.253906 -12.398438 13.828125 -13.515625 C 13.410156 -14.640625 12.816406 -15.5 12.046875 -16.09375 C 11.273438 -16.6875 10.40625 -16.984375 9.4375 -16.984375 C 7.8125 -16.984375 6.628906 -16.394531 5.890625 -15.21875 C 5.148438 -14.050781 4.78125 -12.148438 4.78125 -9.515625 C 4.78125 -6.910156 5.125 -5.039062 5.8125 -3.90625 C 6.507812 -2.769531 7.695312 -2.203125 9.375 -2.203125 C 10.375 -2.203125 11.257812 -2.492188 12.03125 -3.078125 C 12.8125 -3.660156 13.410156 -4.5 13.828125 -5.59375 C 14.253906 -6.695312 14.46875 -8.003906 14.46875 -9.515625 Z M 14.46875 -9.515625 "/></g></g></g><g fill="#000000" fill-opacity="1"><g transform="translate(179.430492, 28.008724)"><g><path d="M 14.515625 0 L 14.515625 -12.078125 C 14.515625 -13.328125 14.390625 -14.296875 14.140625 -14.984375 C 13.898438 -15.679688 13.507812 -16.179688 12.96875 -16.484375 C 12.425781 -16.796875 11.632812 -16.953125 10.59375 -16.953125 C 9.070312 -16.953125 7.867188 -16.425781 6.984375 -15.375 C 6.109375 -14.332031 5.671875 -12.882812 5.671875 -11.03125 L 5.671875 0 L 2.5 0 L 2.5 -14.984375 C 2.5 -17.203125 2.460938 -18.554688 2.390625 -19.046875 L 5.390625 -19.046875 C 5.398438 -18.984375 5.410156 -18.820312 5.421875 -18.5625 C 5.429688 -18.3125 5.441406 -18.015625 5.453125 -17.671875 C 5.472656 -17.335938 5.5 -16.707031 5.53125 -15.78125 L 5.578125 -15.78125 C 6.304688 -17.101562 7.148438 -18.035156 8.109375 -18.578125 C 9.066406 -19.117188 10.253906 -19.390625 11.671875 -19.390625 C 13.753906 -19.390625 15.28125 -18.867188 16.25 -17.828125 C 17.21875 -16.796875 17.703125 -15.082031 17.703125 -12.6875 L 17.703125 0 Z M 14.515625 0 "/></g></g></g></svg>