<svg xmlns="http://www.w3.org/2000/svg" xmlns:xlink="http://www.w3.org/1999/xlink" width="272" zoomAndPan="magnify" viewBox="0 0 204 42" height="56" preserveAspectRatio="xMidYMid meet" version="1.0"><defs><g/><clipPath id="54f34a6bca"><path d="M 2.371094 0 L 201.625 0 L 201.625 41.023438 L 2.371094 41.023438 Z M 2.371094 0 " clip-rule="nonzero"/></clipPath></defs><g clip-path="url(#54f34a6bca)"><path fill="transparent" d="M 2.371094 0 L 201.628906 0 L 201.628906 41.023438 L 2.371094 41.023438 Z M 2.371094 0 " fill-opacity="1" fill-rule="nonzero"/><path fill="transparent" d="M 2.371094 0 L 201.628906 0 L 201.628906 41.023438 L 2.371094 41.023438 Z M 2.371094 0 " fill-opacity="1" fill-rule="nonzero"/></g><g fill="#ffffff" fill-opacity="1"><g transform="translate(12.803488, 30.342827)"><g><path d="M 9.09375 -3.875 L 7.6875 0 L 0.328125 0 L 11.09375 -26.8125 L 16.484375 -26.8125 L 27.140625 0 L 19.71875 0 L 18.40625 -3.875 Z M 10.984375 -9.3125 L 16.59375 -9.3125 L 13.84375 -18.4375 L 13.734375 -18.484375 Z M 10.984375 -9.3125 "/></g></g></g><g fill="#ffffff" fill-opacity="1"><g transform="translate(39.538928, 30.342827)"><g><path d="M 7.796875 -20.109375 L 7.796875 -17.96875 L 7.859375 -17.96875 C 8.367188 -19.007812 9.035156 -19.738281 9.859375 -20.15625 C 10.679688 -20.582031 11.695312 -20.796875 12.90625 -20.796875 L 12.90625 -14.75 C 11.1875 -14.726562 9.960938 -14.414062 9.234375 -13.8125 C 8.515625 -13.207031 8.15625 -12.300781 8.15625 -11.09375 L 8.15625 0 L 2.140625 0 L 2.140625 -20.109375 Z M 7.796875 -20.109375 "/></g></g></g><g fill="#ffffff" fill-opacity="1"><g transform="translate(51.964625, 30.342827)"><g><path d="M 17.03125 -2.0625 C 15.695312 -0.25 13.664062 0.65625 10.9375 0.65625 C 9.101562 0.65625 7.441406 0.195312 5.953125 -0.71875 C 4.472656 -1.644531 3.316406 -2.890625 2.484375 -4.453125 C 1.648438 -6.023438 1.234375 -7.765625 1.234375 -9.671875 C 1.234375 -11.773438 1.660156 -13.671875 2.515625 -15.359375 C 3.367188 -17.054688 4.554688 -18.382812 6.078125 -19.34375 C 7.609375 -20.3125 9.351562 -20.796875 11.3125 -20.796875 C 12.613281 -20.796875 13.789062 -20.546875 14.84375 -20.046875 C 15.894531 -19.554688 16.707031 -18.84375 17.28125 -17.90625 L 17.359375 -17.90625 L 17.359375 -20.109375 L 23.125 -20.109375 L 23.125 6.703125 L 17.109375 6.703125 L 17.109375 -2.0625 Z M 17.3125 -10.03125 C 17.3125 -10.976562 17.085938 -11.84375 16.640625 -12.625 C 16.203125 -13.414062 15.585938 -14.039062 14.796875 -14.5 C 14.015625 -14.957031 13.15625 -15.1875 12.21875 -15.1875 C 10.8125 -15.1875 9.628906 -14.691406 8.671875 -13.703125 C 7.722656 -12.710938 7.25 -11.453125 7.25 -9.921875 C 7.25 -9.035156 7.472656 -8.210938 7.921875 -7.453125 C 8.367188 -6.691406 8.976562 -6.085938 9.75 -5.640625 C 10.519531 -5.191406 11.363281 -4.96875 12.28125 -4.96875 C 13.195312 -4.96875 14.039062 -5.195312 14.8125 -5.65625 C 15.59375 -6.113281 16.203125 -6.726562 16.640625 -7.5 C 17.085938 -8.269531 17.3125 -9.113281 17.3125 -10.03125 Z M 17.3125 -10.03125 "/></g></g></g><g fill="#ffffff" fill-opacity="1"><g transform="translate(76.536044, 30.342827)"><g><path d="M 10.609375 -26.8125 C 12.253906 -26.8125 13.847656 -26.613281 15.390625 -26.21875 C 16.941406 -25.820312 18.3125 -25.234375 19.5 -24.453125 C 21.3125 -23.273438 22.734375 -21.679688 23.765625 -19.671875 C 24.804688 -17.671875 25.328125 -15.535156 25.328125 -13.265625 C 25.328125 -11.566406 25 -9.929688 24.34375 -8.359375 C 23.695312 -6.796875 22.734375 -5.347656 21.453125 -4.015625 C 20.171875 -2.671875 18.597656 -1.664062 16.734375 -1 C 14.878906 -0.332031 12.804688 0 10.515625 0 L 2.6875 0 L 2.6875 -26.8125 Z M 19.671875 -5.65625 C 20.660156 -6.71875 21.398438 -7.914062 21.890625 -9.25 C 22.390625 -10.59375 22.640625 -11.976562 22.640625 -13.40625 C 22.640625 -15.144531 22.273438 -16.753906 21.546875 -18.234375 C 20.828125 -19.722656 19.769531 -21.015625 18.375 -22.109375 C 17.425781 -22.828125 16.25 -23.382812 14.84375 -23.78125 C 13.445312 -24.1875 11.894531 -24.390625 10.1875 -24.390625 L 5.359375 -24.390625 L 5.359375 -2.421875 L 10.296875 -2.421875 C 14.515625 -2.421875 17.640625 -3.5 19.671875 -5.65625 Z M 19.671875 -5.65625 "/></g></g></g><g fill="#ffffff" fill-opacity="1"><g transform="translate(102.764307, 30.342827)"><g><path d="M 11.671875 -1.8125 C 13.234375 -1.8125 14.671875 -2.234375 15.984375 -3.078125 C 17.304688 -3.921875 18.234375 -5.054688 18.765625 -6.484375 L 21.453125 -6.484375 C 20.703125 -4.378906 19.425781 -2.691406 17.625 -1.421875 C 15.820312 -0.160156 13.847656 0.46875 11.703125 0.46875 C 9.835938 0.46875 8.113281 0.0078125 6.53125 -0.90625 C 4.957031 -1.820312 3.703125 -3.078125 2.765625 -4.671875 C 1.835938 -6.265625 1.375 -8.003906 1.375 -9.890625 C 1.375 -11.773438 1.84375 -13.515625 2.78125 -15.109375 C 3.726562 -16.703125 4.992188 -17.96875 6.578125 -18.90625 C 8.160156 -19.851562 9.859375 -20.328125 11.671875 -20.328125 C 13.597656 -20.328125 15.351562 -19.832031 16.9375 -18.84375 C 18.519531 -17.851562 19.769531 -16.539062 20.6875 -14.90625 C 21.601562 -13.28125 22.0625 -11.5625 22.0625 -9.75 L 22.03125 -8.984375 L 3.984375 -8.984375 C 4.054688 -7.703125 4.460938 -6.507812 5.203125 -5.40625 C 5.941406 -4.3125 6.890625 -3.4375 8.046875 -2.78125 C 9.203125 -2.132812 10.410156 -1.8125 11.671875 -1.8125 Z M 11.671875 -18.046875 C 10.429688 -18.046875 9.269531 -17.757812 8.1875 -17.1875 C 7.101562 -16.625 6.1875 -15.828125 5.4375 -14.796875 C 4.6875 -13.773438 4.203125 -12.597656 3.984375 -11.265625 L 19.453125 -11.265625 C 19.097656 -13.273438 18.203125 -14.90625 16.765625 -16.15625 C 15.328125 -17.414062 13.628906 -18.046875 11.671875 -18.046875 Z M 11.671875 -18.046875 "/></g></g></g><g fill="#ffffff" fill-opacity="1"><g transform="translate(125.587219, 30.342827)"><g><path d="M 7 -18.046875 C 6.144531 -18.046875 5.425781 -17.757812 4.84375 -17.1875 C 4.269531 -16.625 3.984375 -15.921875 3.984375 -15.078125 C 3.984375 -14.347656 4.253906 -13.71875 4.796875 -13.1875 C 5.335938 -12.65625 6.210938 -12.195312 7.421875 -11.8125 C 8.992188 -11.300781 10.195312 -10.738281 11.03125 -10.125 C 11.863281 -9.507812 12.429688 -8.832031 12.734375 -8.09375 C 13.035156 -7.363281 13.1875 -6.488281 13.1875 -5.46875 C 13.1875 -3.65625 12.625 -2.210938 11.5 -1.140625 C 10.375 -0.0664062 8.859375 0.46875 6.953125 0.46875 C 5.816406 0.46875 4.785156 0.21875 3.859375 -0.28125 C 2.929688 -0.789062 2.203125 -1.515625 1.671875 -2.453125 C 1.140625 -3.398438 0.875 -4.488281 0.875 -5.71875 L 0.875 -5.875 L 3.40625 -5.875 C 3.425781 -4.5625 3.75 -3.554688 4.375 -2.859375 C 5.007812 -2.160156 5.867188 -1.8125 6.953125 -1.8125 C 8.117188 -1.8125 9.023438 -2.117188 9.671875 -2.734375 C 10.328125 -3.347656 10.65625 -4.222656 10.65625 -5.359375 C 10.65625 -6.273438 10.363281 -7.03125 9.78125 -7.625 C 9.195312 -8.21875 8.316406 -8.734375 7.140625 -9.171875 C 5.765625 -9.671875 4.695312 -10.125 3.9375 -10.53125 C 3.175781 -10.945312 2.570312 -11.492188 2.125 -12.171875 C 1.675781 -12.847656 1.453125 -13.726562 1.453125 -14.8125 C 1.453125 -16.414062 1.984375 -17.734375 3.046875 -18.765625 C 4.109375 -19.804688 5.460938 -20.328125 7.109375 -20.328125 C 8.097656 -20.328125 9 -20.097656 9.8125 -19.640625 C 10.632812 -19.179688 11.285156 -18.539062 11.765625 -17.71875 C 12.253906 -16.894531 12.5 -15.960938 12.5 -14.921875 L 9.96875 -14.921875 C 9.894531 -15.867188 9.582031 -16.625 9.03125 -17.1875 C 8.488281 -17.757812 7.8125 -18.046875 7 -18.046875 Z M 7 -18.046875 "/></g></g></g><g fill="#ffffff" fill-opacity="1"><g transform="translate(138.9186, 30.342827)"><g><path d="M 4.890625 -26.8125 L 4.890625 -22.25 L 2.359375 -22.25 L 2.359375 -26.8125 Z M 4.890625 -19.8125 L 4.890625 0 L 2.359375 0 L 2.359375 -19.8125 Z M 4.890625 -19.8125 "/></g></g></g><g fill="#ffffff" fill-opacity="1"><g transform="translate(145.439269, 30.342827)"><g><path d="M 11.703125 0.46875 C 9.835938 0.46875 8.113281 0.015625 6.53125 -0.890625 C 4.957031 -1.796875 3.695312 -3.039062 2.75 -4.625 C 1.8125 -6.207031 1.34375 -7.9375 1.34375 -9.8125 C 1.34375 -11.726562 1.804688 -13.488281 2.734375 -15.09375 C 3.660156 -16.695312 4.921875 -17.96875 6.515625 -18.90625 C 8.109375 -19.851562 9.835938 -20.328125 11.703125 -20.328125 C 13.296875 -20.328125 14.765625 -19.96875 16.109375 -19.25 C 17.453125 -18.539062 18.53125 -17.546875 19.34375 -16.265625 L 19.421875 -16.265625 L 19.421875 -19.8125 L 21.953125 -19.8125 L 21.953125 -2.109375 C 21.953125 0.140625 21.472656 2.003906 20.515625 3.484375 C 19.566406 4.972656 18.351562 6.0625 16.875 6.75 C 15.40625 7.445312 13.875 7.796875 12.28125 7.796875 C 9.820312 7.796875 7.6875 7.144531 5.875 5.84375 C 4.0625 4.550781 2.816406 2.769531 2.140625 0.5 L 4.8125 0.5 C 5.46875 2.125 6.441406 3.363281 7.734375 4.21875 C 9.023438 5.070312 10.53125 5.5 12.25 5.5 C 14.445312 5.5 16.191406 4.828125 17.484375 3.484375 C 18.773438 2.148438 19.421875 0.410156 19.421875 -1.734375 L 19.421875 -3.625 L 19.34375 -3.625 C 18.644531 -2.34375 17.597656 -1.335938 16.203125 -0.609375 C 14.816406 0.109375 13.316406 0.46875 11.703125 0.46875 Z M 19.5625 -9.890625 C 19.5625 -11.316406 19.210938 -12.65625 18.515625 -13.90625 C 17.816406 -15.164062 16.863281 -16.171875 15.65625 -16.921875 C 14.445312 -17.671875 13.117188 -18.046875 11.671875 -18.046875 C 10.265625 -18.046875 8.960938 -17.675781 7.765625 -16.9375 C 6.578125 -16.195312 5.628906 -15.195312 4.921875 -13.9375 C 4.222656 -12.6875 3.875 -11.335938 3.875 -9.890625 C 3.875 -8.460938 4.21875 -7.125 4.90625 -5.875 C 5.59375 -4.632812 6.535156 -3.644531 7.734375 -2.90625 C 8.929688 -2.175781 10.253906 -1.8125 11.703125 -1.8125 C 13.148438 -1.8125 14.476562 -2.1875 15.6875 -2.9375 C 16.894531 -3.6875 17.84375 -4.675781 18.53125 -5.90625 C 19.21875 -7.132812 19.5625 -8.460938 19.5625 -9.890625 Z M 19.5625 -9.890625 "/></g></g></g><g fill="#ffffff" fill-opacity="1"><g transform="translate(169.095393, 30.342827)"><g><path d="M 11.09375 -18.046875 C 9.207031 -18.046875 7.703125 -17.40625 6.578125 -16.125 C 5.453125 -14.84375 4.890625 -13.210938 4.890625 -11.234375 L 4.890625 0 L 2.359375 0 L 2.359375 -19.8125 L 4.890625 -19.8125 L 4.890625 -17.28125 L 4.96875 -17.28125 C 5.59375 -18.25 6.441406 -19 7.515625 -19.53125 C 8.585938 -20.0625 9.765625 -20.328125 11.046875 -20.328125 C 12.835938 -20.328125 14.390625 -19.941406 15.703125 -19.171875 C 17.023438 -18.398438 18.035156 -17.3125 18.734375 -15.90625 C 19.429688 -14.507812 19.78125 -12.890625 19.78125 -11.046875 L 19.78125 0 L 17.25 0 L 17.25 -11.046875 C 17.25 -12.492188 16.984375 -13.742188 16.453125 -14.796875 C 15.921875 -15.847656 15.179688 -16.648438 14.234375 -17.203125 C 13.296875 -17.765625 12.25 -18.046875 11.09375 -18.046875 Z M 11.09375 -18.046875 "/></g></g></g></svg>